<svg xmlns="http://www.w3.org/2000/svg" xmlns:xlink="http://www.w3.org/1999/xlink" viewBox="0 0 657.05 490.33"><defs><style>.cls-1{fill:url(#Sky);}.cls-2{font-size:400px;font-family:Impact;}.cls-2,.cls-5{fill:#39b54a;}.cls-3{fill:#ff9a00;}.cls-4{fill:#ed1c24;}</style><linearGradient id="Sky" x1="42.87" y1="156.51" x2="64.87" y2="156.51" gradientTransform="translate(76.27 97.01) scale(0.9 1)" gradientUnits="userSpaceOnUse"><stop offset="0" stop-color="#cce0f4"/><stop offset="0.06" stop-color="#c3dcf2"/><stop offset="0.17" stop-color="#a9d2ee"/><stop offset="0.31" stop-color="#80c2e7"/><stop offset="0.46" stop-color="#47acde"/><stop offset="0.57" stop-color="#1e9cd7"/><stop offset="0.87" stop-color="#0075be"/><stop offset="0.99" stop-color="#005b97"/></linearGradient></defs><title>PreLogo</title><g id="Layer_1" data-name="Layer 1"><path class="cls-1" d="M130.44,213h4.43a0,0,0,0,1,0,0v81a0,0,0,0,1,0,0H115a0,0,0,0,1,0,0V228.48A15.45,15.45,0,0,1,130.44,213Z" transform="translate(362.71 386.92) rotate(141.14)"/><text class="cls-2" transform="translate(0 358.11)">D</text></g><g id="Layer_2" data-name="Layer 2"><path class="cls-3" d="M240.34,241.06h19.92V342.42H240.34Zm49.12,19.14a24,24,0,0,0-9.28-1.66q-9.46,0-14.69,5.22t-5.23,14.5l-2.05-19.53a37.25,37.25,0,0,1,12.11-14.11,28.65,28.65,0,0,1,16.41-5,37.34,37.34,0,0,1,12.55,2,28.24,28.24,0,0,1,9.81,5.91l-13,17.58A16.6,16.6,0,0,0,289.46,260.2Z" transform="translate(-18.58 14.37)"/></g><g id="Layer_3" data-name="Layer 3"><path class="cls-4" d="M320.71,336.42q-9.29-7.76-9.28-23.58,0-15,8.5-22.56t25.68-7.52h28.81l1.37,16H345.71q-7.81,0-11.67,3.47t-3.86,10.6q0,7.71,5.13,11.42T350.88,328q11.43,0,17-2.44t5.62-7.61l2,14.25a23.34,23.34,0,0,1-6.49,6.74,28.43,28.43,0,0,1-8.94,4,45.51,45.51,0,0,1-11.43,1.31Q330,344.18,320.71,336.42Zm52.83-58q0-10-5.32-15.48t-15.09-5.51a39,39,0,0,0-11.87,1.85A35.33,35.33,0,0,0,331,264.5l-14.55-10a37.89,37.89,0,0,1,15.19-10.79,54.62,54.62,0,0,1,20.94-3.86q12.6,0,21.59,4.44a30.92,30.92,0,0,1,13.67,12.89q4.68,8.44,4.68,20.36v65.14H373.54Z" transform="translate(-18.58 14.37)"/><path class="cls-4" d="M407.76,241.35h19.92V383.93H407.76Zm28.9,98.29a26.52,26.52,0,0,1-10.35-12.84l1.37-21.19A24.28,24.28,0,0,0,430,316.74a16.29,16.29,0,0,0,6.79,7,22.09,22.09,0,0,0,10.79,2.45q9.87,0,15.28-6t5.42-16.94v-22q0-11.13-5.42-17.28t-15.28-6.15a22.91,22.91,0,0,0-10.79,2.34,15.84,15.84,0,0,0-6.79,6.88A23.53,23.53,0,0,0,427.68,278l-2.05-19.53a35.19,35.19,0,0,1,12-13.72,29.62,29.62,0,0,1,16.5-4.83q10.75,0,18.41,4.83a30.35,30.35,0,0,1,11.67,14.11q4,9.29,4,22.37v22.07q0,12.89-4.1,22.07a30.47,30.47,0,0,1-12,14q-7.91,4.83-18.94,4.83A29.74,29.74,0,0,1,436.66,339.64Z" transform="translate(-18.58 14.37)"/><path class="cls-4" d="M501.55,241.35h19.92V383.93H501.55Zm28.9,98.29A26.52,26.52,0,0,1,520.1,326.8l1.37-21.19a24.28,24.28,0,0,0,2.34,11.13,16.29,16.29,0,0,0,6.79,7,22.09,22.09,0,0,0,10.79,2.45q9.87,0,15.28-6t5.42-16.94v-22q0-11.13-5.42-17.28t-15.28-6.15a22.91,22.91,0,0,0-10.79,2.34,15.84,15.84,0,0,0-6.79,6.88A23.53,23.53,0,0,0,521.47,278l-2.05-19.53a35.19,35.19,0,0,1,12-13.72,29.62,29.62,0,0,1,16.5-4.83q10.74,0,18.41,4.83A30.35,30.35,0,0,1,578,258.83q4,9.29,4,22.37v22.07q0,12.89-4.11,22.07a30.39,30.39,0,0,1-12,14q-7.9,4.83-18.94,4.83A29.74,29.74,0,0,1,530.45,339.64Z" transform="translate(-18.58 14.37)"/></g><g id="Layer_4" data-name="Layer 4"><path class="cls-5" d="M616.31,342.43a61.19,61.19,0,0,1-14.7-5.28,57.28,57.28,0,0,1-12.6-8.79l11.82-14.55a66.43,66.43,0,0,0,16.31,9.38,44.33,44.33,0,0,0,16,3.12q11.82,0,17.73-3.66a12.08,12.08,0,0,0,5.9-11q0-4.89-3.22-7.33a18.13,18.13,0,0,0-8-3.27q-4.78-.82-13.47-1.51c-.52,0-1.08,0-1.66-.05s-1.14-.08-1.66-.15a6.81,6.81,0,0,1-.78-.05,7.13,7.13,0,0,0-.79-.05,78.68,78.68,0,0,1-16.69-2.88,22.7,22.7,0,0,1-11.38-7.86q-4.54-5.76-4.54-16.5T599,254.15a26.7,26.7,0,0,1,13.09-10.7q8.69-3.55,21.77-3.56a75.74,75.74,0,0,1,15.09,1.46,67.49,67.49,0,0,1,13.72,4.35,68.35,68.35,0,0,1,12.6,7.27l-12,14.55a67.32,67.32,0,0,0-15-7.32,45.65,45.65,0,0,0-14.41-2.44q-10.16,0-15.23,3.47t-5.08,10.4a7.06,7.06,0,0,0,2.88,6.15,16.74,16.74,0,0,0,7.28,2.73q4.4.69,12.5,1.17a6.93,6.93,0,0,0,1.22.1,10.29,10.29,0,0,1,1.32.1h.58a1.74,1.74,0,0,1,.59.1A86.14,86.14,0,0,1,658,284.81a24.32,24.32,0,0,1,12.55,8.5q5.09,6.35,5.08,18.36,0,10.93-4.69,18.11t-14.11,10.79q-9.42,3.62-23.68,3.61A77.15,77.15,0,0,1,616.31,342.43Z" transform="translate(-18.58 14.37)"/></g></svg>